<?xml version="1.0" encoding="UTF-8" standalone="no"?>
<!-- Created by Flowgorithm 2.22.1 (http://flowgorithm.org) -->

<svg xmlns:svg="http://www.w3.org/2000/svg" xmlns="http://www.w3.org/2000/svg" version="1.1" width="1325" height="2275">
	<rect x="0" y="0" width="1325" height="2275" fill="#FFFFFF"/>
	<g>
		<polyline fill="none" stroke="#404040" stroke-width="6" stroke-dasharray="none" points="425,200 425,261"/>
		<polygon fill="#404040" stroke="none" points="425,275 438,250 411,250"/>
		<polyline fill="none" stroke="#404040" stroke-width="6" stroke-dasharray="none" points="425,2000 425,2061"/>
		<polygon fill="#404040" stroke="none" points="425,2075 438,2050 411,2050"/>
		<g>
			<path fill="#F0D0FF" stroke="#9070A0" stroke-width="3" stroke-dasharray="none" d="M 325,100 A 50,50 0 0,0 325,200 L 525,200 A 50,50 0 0,0 525,100 Z"/>
			<text x="425" y="115" fill="#000000" font-family="Arial" font-size="32pt" text-anchor="middle" direction="ltr">
				<tspan x="425" dy="50" unicode-bidi="embed">Start</tspan>
			</text>
		</g>
		<g>
			<path fill="#F0D0FF" stroke="#9070A0" stroke-width="3" stroke-dasharray="none" d="M 325,2075 A 50,50 0 0,0 325,2175 L 525,2175 A 50,50 0 0,0 525,2075 Z"/>
			<text x="425" y="2090" fill="#000000" font-family="Arial" font-size="32pt" text-anchor="middle" direction="ltr">
				<tspan x="425" dy="50" unicode-bidi="embed">End</tspan>
			</text>
		</g>
		<g>
			<polyline fill="none" stroke="#404040" stroke-width="6" stroke-dasharray="none" points="425,450 425,511"/>
			<polygon fill="#404040" stroke="none" points="425,525 438,500 411,500"/>
			<polyline fill="none" stroke="#404040" stroke-width="6" stroke-dasharray="none" points="425,625 425,686"/>
			<polygon fill="#404040" stroke="none" points="425,700 438,675 411,675"/>
			<polyline fill="none" stroke="#404040" stroke-width="6" stroke-dasharray="none" points="425,900 425,1661"/>
			<polygon fill="#404040" stroke="none" points="425,1675 438,1650 411,1650"/>
			<polyline fill="none" stroke="#404040" stroke-width="6" stroke-dasharray="none" points="425,1775 425,1836"/>
			<polygon fill="#404040" stroke="none" points="425,1850 438,1825 411,1825"/>
			<g>
				<path fill="#FFFFD0" stroke="#A0A070" stroke-width="3" stroke-dasharray="none" d="M 150,275 L 150,450 L 700,450 L 700,275 Z"/>
				<polyline fill="none" stroke="#A0A070" stroke-width="3" stroke-dasharray="none" points="150,300 700,300"/>
				<polyline fill="none" stroke="#A0A070" stroke-width="3" stroke-dasharray="none" points="175,275 175,450"/>
				<text x="437" y="315" fill="#000000" font-family="Arial" font-size="32pt" text-anchor="middle" direction="ltr">
					<tspan x="437" dy="50" unicode-bidi="embed">Integer currentNumber,</tspan>
					<tspan x="437" dy="50" unicode-bidi="embed"> currentSum, average, i</tspan>
				</text>
			</g>
			<g>
				<path fill="#FFFFD0" stroke="#A0A070" stroke-width="3" stroke-dasharray="none" d="M 250,525 L 250,625 L 600,625 L 600,525 Z"/>
				<text x="425" y="540" fill="#000000" font-family="Arial" font-size="32pt" text-anchor="middle" direction="ltr">
					<tspan x="425" dy="50" unicode-bidi="embed">currentSum = 0</tspan>
				</text>
			</g>
			<g>
				<polyline fill="none" stroke="#404040" stroke-width="6" stroke-dasharray="none" points="600,800 900,800 900,961"/>
				<polygon fill="#404040" stroke="none" points="900,975 913,950 886,950"/>
				<polyline fill="none" stroke="#404040" stroke-width="6" stroke-dasharray="none" points="900,1525 900,1600 475,1600 475,913"/>
				<polygon fill="#404040" stroke="none" points="475,900 461,924 488,924"/>
				<g>
					<polyline fill="none" stroke="#404040" stroke-width="6" stroke-dasharray="none" points="900,1125 900,1186"/>
					<polygon fill="#404040" stroke="none" points="900,1200 913,1175 886,1175"/>
					<polyline fill="none" stroke="#404040" stroke-width="6" stroke-dasharray="none" points="900,1300 900,1361"/>
					<polygon fill="#404040" stroke="none" points="900,1375 913,1350 886,1350"/>
					<g>
						<path fill="#D0FFD0" stroke="#70A070" stroke-width="3" stroke-dasharray="none" d="M 650,975 L 575,1125 L 1150,1125 L 1225,975 Z"/>
						<text x="900" y="990" fill="#000000" font-family="Arial" font-size="32pt" text-anchor="middle" direction="ltr">
							<tspan x="900" dy="50" unicode-bidi="embed">Output &quot;Please enter a</tspan>
							<tspan x="900" dy="50" unicode-bidi="embed"> number...&quot;</tspan>
						</text>
					</g>
					<g>
						<path fill="#D0E0FF" stroke="#7080A0" stroke-width="3" stroke-dasharray="none" d="M 675,1200 L 625,1300 L 1125,1300 L 1175,1200 Z"/>
						<text x="900" y="1215" fill="#000000" font-family="Arial" font-size="32pt" text-anchor="middle" direction="ltr">
							<tspan x="900" dy="50" unicode-bidi="embed">Input currentNumber</tspan>
						</text>
					</g>
					<g>
						<path fill="#FFFFD0" stroke="#A0A070" stroke-width="3" stroke-dasharray="none" d="M 600,1375 L 600,1525 L 1200,1525 L 1200,1375 Z"/>
						<text x="900" y="1390" fill="#000000" font-family="Arial" font-size="32pt" text-anchor="middle" direction="ltr">
							<tspan x="900" dy="50" unicode-bidi="embed">currentSum = currentSum+</tspan>
							<tspan x="900" dy="50" unicode-bidi="embed">currentNumber</tspan>
						</text>
					</g>
				</g>
				<g>
					<path fill="#FFE0A0" stroke="#A08040" stroke-width="3" stroke-dasharray="none" d="M 425,700 L 250,800 L 425,900 L 600,800 Z"/>
					<text x="425" y="765" fill="#000000" font-family="Arial" font-size="32pt" text-anchor="middle" direction="ltr">
						<tspan x="425" dy="50" unicode-bidi="embed">i = 1 to 5</tspan>
					</text>
				</g>
				<text x="675" y="715" fill="#000000" font-family="Arial" font-size="32pt" text-anchor="middle" direction="ltr">
					<tspan x="675" dy="50" unicode-bidi="embed">Next</tspan>
				</text>
				<text x="337" y="915" fill="#000000" font-family="Arial" font-size="32pt" text-anchor="middle" direction="ltr">
					<tspan x="337" dy="50" unicode-bidi="embed">Done</tspan>
				</text>
			</g>
			<g>
				<path fill="#FFFFD0" stroke="#A0A070" stroke-width="3" stroke-dasharray="none" d="M 150,1675 L 150,1775 L 700,1775 L 700,1675 Z"/>
				<text x="425" y="1690" fill="#000000" font-family="Arial" font-size="32pt" text-anchor="middle" direction="ltr">
					<tspan x="425" dy="50" unicode-bidi="embed">average = currentSum/5</tspan>
				</text>
			</g>
			<g>
				<path fill="#D0FFD0" stroke="#70A070" stroke-width="3" stroke-dasharray="none" d="M 175,1850 L 100,2000 L 675,2000 L 750,1850 Z"/>
				<text x="425" y="1865" fill="#000000" font-family="Arial" font-size="32pt" text-anchor="middle" direction="ltr">
					<tspan x="425" dy="50" unicode-bidi="embed">Output &quot;Average is: &quot; &amp;</tspan>
					<tspan x="425" dy="50" unicode-bidi="embed"> average</tspan>
				</text>
			</g>
		</g>
	</g>
</svg>
